<svg xmlns="http://www.w3.org/2000/svg" viewBox="0 0 146 300"><path d="M75.8 147.8V.44c-1.63.03-3.32.34-5.06.94a11.8 11.8 0 0 0-8.31 9.86c-.56 3.32-.24 6.54.7 9.72.15.5.32.86-.4 1.07-.62.18-.73.8-.7 1.37.13 1.65.6 3.2 1.54 4.57.27.4.58.8 1.03.87.76.12.83.56.86 1.2.07 1.57.15 3.16 1.67 4.17.3.2.22.55.22.85 0 1.5-.1 3-.4 4.48-.44 2.24-1.08 4.43-2.77 6.1-2.26 2.2-4.66 4.26-7.28 6.05-2.13 1.45-4.27 2.95-6.8 3.58-3.1.77-5.98 2-8.66 3.7-3.64 2.32-6.02 5.48-6.7 9.86-.47 3.05-.48 6.1-.43 9.18.04 2.45.56 4.94-.03 7.33-1.25 5.06-2.53 10.1-2.92 15.34-.1 1.16-.58 2.07-1.34 2.94-2.5 2.85-4.35 6.08-5.5 9.7l-3.42 10.85c-1.33 4.22-3.4 8.14-5.04 12.23a10.8 10.8 0 0 1-4.79 5.73c-1.33.74-2.6 1.67-3.38 3.05-.6 1.05-1.6 1.63-2.53 2.34-1.62 1.23-3.07 2.7-4.58 4.08-.02.02-.03.05-.04.08a2.6 2.6 0 0 0 .02.37c.47.85 1.2 1.13 2.15 1.13.9 0 1.67-.32 2.4-.8a16.8 16.8 0 0 0 2.58-2.16c.1.32-.01.46-.1.63l-4.1 8.54c-.7 1.5-1.4 3-1.5 4.7-.03.54.07 1.08.62 1.34a1.5 1.5 0 0 0 1.57-.18 4.8 4.8 0 0 0 1.3-1.64l2.74-4.9c.3-.53.6-1.1 1.15-1.45-.63 1.6-1.37 3.13-2.02 4.7-.85 2.03-1.82 4.03-2.1 6.25-.1.77-.02 1.52.82 1.86.86.34 1.38-.2 1.83-.84.74-1.03 1.18-2.2 1.65-3.38.88-2.2 1.64-4.43 2.86-6.47.18-.3.27-.74.8-.82-.05.4-.08.74-.15 1.06-.53 2.46-1.16 4.9-2.04 7.26a8.8 8.8 0 0 0-.66 2.95c-.01.78.25 1.47 1.1 1.7.82.23 1.35-.22 1.75-.86.5-.8.84-1.7 1.1-2.63l1.88-7.02c.16-.6.27-1.24.58-1.82.24.18.18.38.2.55a34.1 34.1 0 0 1-.14 5.79c-.06.7-.01 1.4.2 2.1.16.5.5.85 1.05.9s.94-.27 1.18-.73c.33-.63.46-1.34.5-2.04l.2-4.87c.02-1.67.24-3.22 1.1-4.74 1.3-2.27 2.3-4.68 2.4-7.37.03-.95.08-1.9.18-2.84.2-1.76 1.34-3.07 2.24-4.48 3.27-5.13 7.26-9.73 10.94-14.56 2.87-3.77 5.08-7.83 5.85-12.54.68-4.16 1.55-8.22 3.22-12.13 2-4.67 4.06-9.34 5.3-14.3.02-.08.05-.18.26-.08l.15 1.02c.4 2.4.53 4.9 1.77 7 1.22 2.08 1.47 4.17 1.1 6.44-.2 1.1-.18 2.2.17 3.28a6.1 6.1 0 0 1 .11 3.16 46.7 46.7 0 0 0-.87 12.53 6.5 6.5 0 0 1-.49 3.05c-1.72 4.08-3.1 8.27-3.76 12.67-.46 3.03-.9 6.07-1.63 9.05a72.6 72.6 0 0 0-2.09 19.79c.28 7.6 1.4 15.07 2.65 22.55.33 2 .92 3.98.78 6-.3 4.44-.52 8.87-.15 13.32.24 2.9-.04 5.66-1.2 8.43a43.1 43.1 0 0 0-3.32 17.23c.04 5.56.7 11.07 1.3 16.6.6 5.36 1.6 10.7 1.7 16.1.07 3.44-.03 6.87-1.04 10.2a8.3 8.3 0 0 0-.35 2.63c.08 2.9-.53 5.58-2.5 7.86a10 10 0 0 0-1.82 2.97c-.78 2.1-.78 4.47 1.94 5.45 2.18.8 4.32 1.73 6.3 2.98.86.54 1.86.6 2.86.45a8.3 8.3 0 0 0 3.86-1.63c2.16-1.64 3.23-3.72 2.6-6.5a18.3 18.3 0 0 1-.44-4.29c.03-2.73.77-5.34 1.2-8 .2-1.28.32-2.58-.2-3.8-.7-1.62-1.1-3.32-1.43-5.04-1.18-6-1.2-11.88 1.27-17.6l2.95-6.94c2.2-4.8 3.1-9.8 2.32-15.05-.38-2.55-1.02-5.05-1.58-7.57a9.5 9.5 0 0 1 .86-6.78 20.7 20.7 0 0 0 2.06-6.17c.76-4.3.9-8.66 1.03-13 .12-4.08.66-8.06 2.07-11.9a24.6 24.6 0 0 0 .5-1.57c3.18-10.87 4.32-22 4.28-33.28-.01-1.47 0-1.58 1.2-1.68z" fill="#c6c6c6"/><path d="M75.8 148v-.55c-.94-.02-1.85-.23-2.75-.52a2.9 2.9 0 0 1-1.83-1.8l-3.5-8.28c-2.38-5.24-5.9-9.57-10.5-13.05-.66-.5-1.35-.95-2.12-1.28-.42-.18-.57-.53-.4-.9.23-.52.6-.1.83.03a43.8 43.8 0 0 1 5.8 4.03c.45.37.92.7 1.45.97 1.63.77 2.88.05 3.03-1.75a13.4 13.4 0 0 0-.21-3.3c-.52-3.08-.3-6.18-.22-9.27.02-.84.6-1.64.47-2.57-.07-.54-.04-1.1-.18-1.64-.15-.6-.17-1.16-.03-1.8.36-1.62.03-3.23-.24-4.83-.03-.2-.16-.45-.1-.62.62-1.5.44-3.1.3-4.63-.12-1.45.5-2.84.2-4.28-.1-.5-.14-1.03-.27-1.53-.26-.98-.8-1.7-1.85-1.97-.38-.1-.65-.26-.32-.7.56-.75.7-1.63.65-2.53-.02-.56.18-.68.7-.6.7.1 1.4.12 2.14.17a23.1 23.1 0 0 0-.84 6.65 9.1 9.1 0 0 0 .12 1.28c.22 1.24.56 1.42 1.77.94.78-.3 1.43-.82 2.1-1.3a5.4 5.4 0 0 1 3.27-1.03c1.6.01 1.9-.34 1.93-1.97.02-2.67-.1-5.33-1.05-7.87-.07-.2-.02-.34.03-.53 1.34-4.2 1.48-8.54 1.34-12.9-.04-1.15-.26-2.3-.5-3.44-.45-2.16-1.78-3.4-3.86-3.95a23.1 23.1 0 0 0-6.35-.8c-.5.01-.97-.01-1.44-.2-4.66-1.92-9.47-3.1-14.62-3.14.28-.43.72-.34 1.04-.48 1.5-.66 3-.32 4.55-.04a60.1 60.1 0 0 0 9.61.87c3.46.08 6.72.97 9.93 2.1a6.1 6.1 0 0 0 1.89.37V36.9a10.3 10.3 0 0 1-3.63-.7 39.3 39.3 0 0 1-4-1.87c-1.15-.6-1.9-1.5-1.96-2.9-.02-.55-.1-1.1-.15-1.65-.04-.6.2-1.36-.95-1.16-.42.07-.76-.45-1.03-.84-.7-1-1.07-2.14-1.3-3.3-.3-1.5-.12-1.76 1.44-2-.67-2.05-1.23-4.12-1.4-6.26a16.6 16.6 0 0 1 1.32-8.17c1.77-3.97 5.2-5.77 9.2-6.6a14 14 0 0 1 2.47-.29v-.5a16.5 16.5 0 0 0-4.97.94 11.8 11.8 0 0 0-8.31 9.86 21.3 21.3 0 0 0 .7 9.72c.15.5.32.87-.4 1.07-.62.18-.73.8-.7 1.37a9.2 9.2 0 0 0 1.54 4.56c.27.4.58.8 1.03.87.76.12.83.56.86 1.2.07 1.57.15 3.16 1.67 4.17.3.2.22.55.22.85a22.5 22.5 0 0 1-.4 4.48c-.44 2.24-1.08 4.43-2.77 6.1-2.26 2.2-4.66 4.26-7.28 6.05-2.13 1.45-4.27 2.95-6.8 3.58-3.1.77-5.98 2-8.66 3.7a13.8 13.8 0 0 0-6.7 9.86c-.47 3.05-.48 6.1-.43 9.18.04 2.45.56 4.94-.03 7.33-1.25 5.06-2.53 10.1-2.92 15.34-.08 1.16-.58 2.07-1.34 2.94-2.5 2.85-4.35 6.08-5.5 9.7l-3.42 10.85c-1.33 4.22-3.4 8.14-5.04 12.23a10.8 10.8 0 0 1-4.79 5.73c-1.33.74-2.6 1.66-3.38 3.04-.6 1.05-1.6 1.63-2.53 2.34-1.62 1.23-3.07 2.7-4.58 4.08-.02.02-.03.05-.04.08a2.6 2.6 0 0 0 .02.37c.47.85 1.2 1.13 2.15 1.13.9 0 1.67-.32 2.4-.8A16.8 16.8 0 0 0 8 150.4c.1.32-.01.46-.1.63l-4.1 8.54c-.7 1.5-1.4 3-1.5 4.7-.03.54.07 1.08.6 1.34a1.5 1.5 0 0 0 1.57-.18 4.8 4.8 0 0 0 1.3-1.64l2.73-4.9c.3-.53.6-1.1 1.16-1.45-.63 1.6-1.37 3.13-2.02 4.7-.85 2.03-1.82 4.03-2.1 6.26-.1.77-.02 1.52.82 1.86.86.34 1.38-.2 1.83-.84.74-1.04 1.18-2.2 1.65-3.38.88-2.2 1.64-4.43 2.86-6.47.18-.3.27-.74.8-.82-.05.4-.08.74-.15 1.06-.53 2.46-1.16 4.9-2.04 7.26a8.8 8.8 0 0 0-.66 2.95c-.01.78.25 1.47 1.1 1.7.82.23 1.35-.22 1.75-.86.5-.8.84-1.7 1.1-2.63l1.88-7.02c.16-.6.26-1.24.58-1.82.24.18.18.38.2.55a34.1 34.1 0 0 1-.14 5.79c-.06.7-.01 1.4.2 2.1.16.5.5.85 1.05.9s.94-.27 1.18-.73c.33-.64.46-1.34.5-2.04l.2-4.87c.02-1.67.24-3.22 1.1-4.74 1.3-2.26 2.3-4.68 2.4-7.37a38.3 38.3 0 0 1 .18-2.84c.2-1.76 1.34-3.07 2.24-4.48 3.27-5.13 7.26-9.73 10.94-14.56 2.87-3.77 5.08-7.83 5.85-12.54.68-4.16 1.55-8.22 3.23-12.13 2-4.67 4.06-9.34 5.3-14.3.02-.08.05-.18.26-.08l.15 1.02c.4 2.4.53 4.9 1.77 7 1.22 2.08 1.48 4.17 1.1 6.44-.2 1.1-.18 2.2.17 3.28a6.1 6.1 0 0 1 .11 3.16 46.7 46.7 0 0 0-.87 12.53 6.5 6.5 0 0 1-.49 3.05c-1.72 4.08-3.1 8.27-3.76 12.67-.46 3.03-.9 6.07-1.63 9.05a72.6 72.6 0 0 0-2.09 19.79c.28 7.6 1.4 15.08 2.65 22.55.33 2 .92 3.98.78 6-.3 4.44-.52 8.87-.15 13.32.24 2.9-.04 5.66-1.2 8.43a43.1 43.1 0 0 0-3.32 17.23c.04 5.56.7 11.08 1.3 16.6.6 5.36 1.6 10.7 1.7 16.1.07 3.44-.03 6.87-1.04 10.2a8.3 8.3 0 0 0-.35 2.63c.08 2.9-.53 5.58-2.5 7.86a10 10 0 0 0-1.82 2.97c-.78 2.1-.78 4.47 1.94 5.45 2.18.8 4.32 1.73 6.3 2.98a4.1 4.1 0 0 0 2.86.45 8.3 8.3 0 0 0 3.86-1.63c2.16-1.64 3.23-3.72 2.6-6.5a18.3 18.3 0 0 1-.44-4.29c.03-2.73.77-5.34 1.2-8 .2-1.28.32-2.58-.2-3.8-.7-1.62-1.1-3.32-1.43-5.04-1.18-6-1.2-11.88 1.27-17.6l2.95-6.94c2.2-4.8 3.1-9.8 2.32-15.05-.38-2.55-1.02-5.05-1.58-7.57a9.5 9.5 0 0 1 .86-6.78 20.7 20.7 0 0 0 2.06-6.17c.76-4.3.9-8.66 1.03-13 .12-4.08.66-8.06 2.07-11.9a24.6 24.6 0 0 0 .5-1.57c3.18-10.87 4.32-22 4.28-33.28-.01-1.43 0-1.57 1.12-1.67zm-4.55-90.4c-.42-.1-.6-.4-.72-.74-.8-2.52-.94-5.13-.96-7.76 1.96 2.87 3.62 5.87 4.68 9.4l-3-.9zm.07-21.17a7.5 7.5 0 0 0 3.61.9c.48-.02.7.12.7.67l-.02 18.5c0 .08-.04.16-.07.25-2.22-6.7-4.2-13.42-4.83-20.5.2.07.42.12.6.2zm-4.1 4.95c.58-2.07.72-4.2.82-6.4.67.15 1.2.5 1.77.77.23.1.28.27.3.5.78 6.9 2.6 13.58 4.72 20.18.2.66.3 1.37.42 2.06.02.08-.04.17-.06.26-.3-.01-.43-.15-.5-.44-.7-2.95-2.16-5.57-3.72-8.14C69.4 47.6 68.3 44.8 67.3 42c-.07-.2-.14-.38-.07-.6zm.28 3.65c.01-.1.03-.22.04-.32.7 1.26 1.32 2.48 1.38 3.97.1 2.85.27 5.7 1.1 8.5l-3.76-.68c-.27-.05-.45-.04-.32-.43 1.2-3.58 1.27-7.32 1.55-11.03zm-3.55 1.9a11.1 11.1 0 0 0 2.89-4.25c.3.73.15 1.33.13 1.9-.15 3.33-.37 6.65-1.1 9.9-.45 2.02-.45 1.97-2.5 1.88-3.3-.16-6.6-.38-9.84-.98-.23-.04-.46-.13-.9-.25 4.3-2.26 7.92-5.08 11.3-8.2zm3.75 91.4c.56 1.16 1.4 2.27 1.44 3.54.08 3.1.9 6.04 1.43 9.04.66 3.8 1.1 7.63 1.16 11.5.03 1.87-1.05 3.4-2.16 5.14a117.5 117.5 0 0 0-2.26-12.94 60.2 60.2 0 0 0-2.69-8.35 1.1 1.1 0 0 1 .2-1.26c1.28-1.68 1.84-3.7 2.46-5.68.1-.3.2-.63.4-.98zm-1.76-3.86l1.23 2.5c.08.16.14.32.1.53-.63 2.3-1.28 4.6-2.5 6.68-.14.24-.26.66-.6.58-.17-.03-.25-.44-.37-.68-.65-1.24-.96-2.3.03-3.7 1.04-1.45 1.35-3.32 1.84-5.06.06-.2.13-.4.28-.84zm-.5-.75c.05.1.03.24 0 .35-.63 2.28-1.2 4.6-2.36 6.7-.1.17-.17.4-.4.47-1.3-1.66-1.24-3.44-.75-5.33.43-1.65.86-3.3 1.47-5.06.86.93 1.43 1.92 2.03 2.88zm-6.12-7.43a32.8 32.8 0 0 1 3.42 3.58c.2.24.26.5.16.76a42.1 42.1 0 0 0-1.83 6.93c-1.8-2.6-2.63-8.04-1.75-11.28zm5.42-36.4c.7 1.3.7 2.7.57 4.12-.04.4-.33.54-.67.37a49.8 49.8 0 0 0-5.9-2.58c1.45-.4 2.55-1.27 3.57-2.25.82-.8 1.88-.68 2.42.35zm-5.94 2.63c2.1.56 4 1.62 6 2.47.3.13.34.42.34.7v2.02c0 .67.03 1.35 0 2.02-.03.68-.33 1.03-1.07.7a21.1 21.1 0 0 1-6.08-4.04c-.84-.8-.95-1.82-.73-2.9.18-.86.74-1.18 1.55-.97zm-1.23-1.88a6.9 6.9 0 0 1-3.14-5.8c2.1 2.9 4.8 3.9 8.2 3.46a7.8 7.8 0 0 1-3.62 2.77c-.5.18-1.02-.14-1.45-.43zm5.97-4.83c-.16 1.4-.48 1.88-1.65 2-4.62.5-7.5-2.7-8.2-6.64-.03-.16-.1-.36.12-.55a19.1 19.1 0 0 0 8.45 3.7c.95.17 1.4.42 1.28 1.48zm11.16 4.1c-.02.63-.37 1-.97.95-2.1-.2-3.67.9-5.3 1.98-1.42.95-1.75.8-1.84-.87a20.1 20.1 0 0 1 .7-6.45c.13-.5.36-.8.9-.86 2.1-.2 4.08-.74 5.63-2.57a24.7 24.7 0 0 1 .85 7.83zM69.83 61c3.74.84 4.4 1.4 5.05 5.8a26 26 0 0 1 .2 3.95c-.01 3.35-.33 6.66-1.28 9.9a4.1 4.1 0 0 1-2.67 2.81c-2.7 1.02-5.47.98-8.24.5-3.2-.56-6.22-1.66-8.75-3.8-4.2-3.53-5.25-10.06-2.34-14.4 1.6-2.4 4-3.67 6.67-4.44 3.75-1.08 7.58-1.17 11.37-.3zm-34.16 6.74c.8-3.38 2.87-5.82 5.65-7.75 1.46-1.02 3.04-1.83 4.66-2.55.22-.1.46-.2.7-.2 5.37-.35 10.5.7 15.68 2.7-1.45.3-2.73.5-3.97.85-3.32.95-6.1 2.65-7.75 5.84-.55 1.08-.88 2.23-.95 3.42-.04.72-.27 1.3-.63 1.88-1.57 2.55-3.5 4.72-6.25 6.05a18.9 18.9 0 0 0-7.04 5.76c-.14.2-.33.36-.66.7-.01-5.73-.74-11.23.56-16.7zM21.7 126.16c.78-4.33 2.18-8.45 3.48-12.6a26.7 26.7 0 0 1 5.98-10.1c.82 1.97 1.46 3.95 1.34 5.98-.1 1.68-.93 3.27-1.53 4.86-1.18 3.14-2.82 6.02-4.76 8.75-3.8 5.37-6.62 11.26-8.98 17.38-.04.1-.1.23-.14.34-.12.25-.13.73-.54.56-.47-.2-.04-.53.05-.75 2-4.7 4.2-9.37 5.1-14.4zm5.25 3.56c-2.95 3.76-5.6 7.73-7.68 12.05-.1.18-.1.58-.43.42-.38-.18-.1-.46-.01-.7a137.6 137.6 0 0 0 4.54-10.82c.38-1.07.75-2.14.92-3.26a3.3 3.3 0 0 1 .55-1.34l3.7-5.6c1-1.52 1.78-3.15 2.45-4.82a2.9 2.9 0 0 1 1.13-1.4 73 73 0 0 1 5.03-3.02c.38-.22 1.23.32 1.24.78-.04.06-.08.15-.14.2-1.27 1.17-1.94 2.73-2.62 4.26-2.17 4.9-5.4 9.07-8.68 13.24zm.78-.24a22.6 22.6 0 0 1-1.83 4.91c-1.33 2.85-2.76 5.64-4.56 8.24-.45.65-.78.48-1.32.2-.6-.3-.36-.65-.17-1.03a68.4 68.4 0 0 1 7.66-11.94c.1-.12.14-.26.22-.4zm-9.4 11.8c-.12.26-.2.6-.65.45s-.2-.43-.1-.67c1.54-4.1 3.32-8.08 5.44-11.9.05-.1.15-.17.4-.43a33.6 33.6 0 0 1-1.72 4.83l-3.35 7.72zm18.55-30.5l-4.9 2.84c-.04-2.82 2.23-3.5 4.16-4.45.64-.3.56.6.87.9.27.26.23.5-.13.7zM14.52 140.5c2.8-4.1 4.14-8.9 6.28-13.3.01-.01.04-.01.14-.03-.4 1.87-1.04 3.64-1.68 5.4-.97 2.66-2.1 5.27-3.2 7.88-.34.82-.84.58-1.38.45-.2-.05-.32-.18-.17-.4zm5.7 16.92c-.32.52-.36 1.1-.4 1.68-.17 2.44-.03 4.9-.36 7.34a5.8 5.8 0 0 1-.31 1.14c-.12.33-.33.63-.73.58-.38-.05-.54-.38-.62-.72a5 5 0 0 1-.16-1.55c.2-1.95.3-3.9.17-5.87-.01-.1 0-.18-.02-.27-.08-.46.01-1.12-.6-1.18-.56-.05-.67.58-.78 1L14.13 168c-.23.86-.5 1.7-1 2.46-.28.43-.55.96-1.2.74-.7-.23-.77-.84-.7-1.43a12.9 12.9 0 0 1 .7-2.75c.9-2.5 1.6-5.08 2.07-7.7.01-.06.04-.12.04-.18.02-.4.22-.95-.26-1.16-.53-.23-.84.27-1.1.63-1.23 1.78-1.98 3.8-2.77 5.8-.56 1.42-1.05 2.88-1.84 4.2-.33.54-.63 1.42-1.43 1.14-.84-.3-.63-1.16-.46-1.84.63-2.67 1.8-5.13 2.92-7.62l1.3-2.94c.13-.3.3-.68-.07-.92-.4-.26-.7.05-.95.32-.98 1.1-1.66 2.42-2.4 3.7l-1.8 3.3a5.1 5.1 0 0 1-.59.82c-.35.4-.75.8-1.33.57-.62-.25-.44-.83-.37-1.28.2-1.38.75-2.65 1.34-3.9l4.1-8.53a6.8 6.8 0 0 0 .4-1.03c.07-.25.2-.56-.1-.75-.28-.16-.53-.01-.75.18-.8.68-1.5 1.44-2.38 2.02-.8.53-1.6 1.03-2.62.96-.3-.02-.6-.05-.88-.2-.54-.32-.75-.82-.12-1.1 2.07-.95 2.93-3.38 5.16-4.14.54-.18.88-.77 1.16-1.28 1.24-2.2 3.5-3.2 5.4-4.6.28-.2.6-.07.9-.03 3.25.48 5.95 2.18 8.65 3.88.27.17.32.37.33.68.04 4.13-1.08 7.92-3.22 11.43zm8.38-20.2c-1.7 2.3-3.37 4.67-4.7 7.2-.3.56-.55.4-.9.16s-.87-.35-.4-1l4.83-6.47c1.92-2.42 3.96-4.72 6.38-6.66l-5.2 6.76zm5.73-8.18c-4.77 3.98-8.43 8.95-12 13.97-.2.27-.37.88-.7.64-.5-.36.15-.67.33-.93 2.92-4.3 5-9.04 6.88-13.86a9.1 9.1 0 0 1 1.38-2.46c2.7-3.36 4.76-7.12 6.56-11.02.4-.9.9-1.74 1.56-2.48.32-.35.58-.44.95-.02.5.58 1.07 1.1 1.63 1.62.2.18.34.35.24.62-.9 5.3-2.44 10.27-6.8 13.9zm7.8-13.28c-.04.3-.1.6-.2.9a13.1 13.1 0 0 1-1.3 3.34l.94-4.34c.03-.16.1-.3.3-.24.15.05.27.18.25.34zm.52-2.13c-.15.4.03 1.02-.38 1.14-.37.1-.7-.4-1-.7-1.7-1.6-3.36-3.24-4.3-5.43-.2-.47-.4-.4-.75-.2l-3.06 1.67a21.6 21.6 0 0 0-1.42-6.93c-.27-.77.23-1.47.3-2.22.4-5.08 1.45-10.04 2.9-14.92.08-.26.14-.55.3-.75 1.8-2.22 3.48-4.54 6.1-5.87 3.33-1.7 6.33-3.74 8.2-7.16.3 1.3.5 2.52.97 3.7.25.62.04 1.2-.1 1.8-1.22 5.48-2.48 10.95-4.96 16.04-.92 1.9-2.3 3.45-3.5 5.15-.83 1.18-1.63 2.37-2.3 3.64-1.34 2.48-1.14 4.86.5 7.13.52.72 1.05 1.46 1.8 1.95.77.5 1.05 1.12.72 1.97zm-1.5-8.13l-1.77 1.1c-.3-1.6.33-3.52 1.76-5.4a32.8 32.8 0 0 0 .41 3.77c.05.3-.2.42-.4.55zm1.12 1.9c.15.43.12.7-.38.88-.48.17-.92.45-1.42.7-.5-.25-.58-.8-.8-1.23-.13-.27-.32-.55.1-.76.2-.1.37-.2.55-.32 1.44-.85 1.43-.85 1.95.72zm.7 4.35c-.9-.53-1.47-1.2-2.04-1.86-.2-.24-.2-.43.1-.57l1.22-.6c.35-.2.44 0 .62.26.62.88.14 1.76.1 2.8zm2.22-8.1c-.67 1.57-1.28 3.16-1.84 4.8-1.17-2.47-1.72-5.04-1.6-7.75.02-.56.27-1 .6-1.4 3.1-3.7 5.07-7.97 6.36-12.6a140.6 140.6 0 0 0 2.3-9.29l1.87 2.34c.2.24.03.52-.03.8-1.64 8-4.5 15.6-7.67 23.1zm8.72-13.02c.33 1.44.01 2.84-.06 4.5-.64-1.36-.82-2.6-1.05-3.8-.3-1.6-.48-3.2-.73-4.8-.1-.64.18-1.2.32-1.78.23-.97.5-1.92.74-2.9 1.2 1.7.75 3.64 1.06 5.44.17 1-.53 2.2-.27 3.32zm.8-2.27c.78 1.2 1.67 2.28 2.94 2.97.23.13.52.46.16.64-1.1.56-1.15 1.56-1.2 2.67-1.8-1.16-2.78-4.5-1.9-6.28zm-.08 8.05a5.4 5.4 0 0 1-.01-2.89 8.4 8.4 0 0 0 2.16 2.05c-.8.08-1.53.16-2.15.84zm.87.02c.7-.37 1.4-.4 2.02.23 1.46 1.52 3.22 2.63 5.04 3.64.35.2.7.45 1.07.5 1.04.17 1.4.8 1.46 1.77.05.8.14 1.58.2 2.17.01 2.2-.16 2.32-1.95 1.4a29.7 29.7 0 0 1-6.64-4.58c-.7-.65-1.35-1.32-1.28-2.4.02-.38-.1-.8-.25-1.16-.25-.62-.37-1.2.33-1.58zm-.3 7.86c-.14-.98.16-1.94.25-3.15 1.65 1.62 3.28 2.9 5.05 4a23.2 23.2 0 0 0 4.14 2.15c.86.3.6 1.26.67 1.9.07.7.34 1.5-.24 2.1-.18.2-.52.05-.8-.04a35.4 35.4 0 0 1-7.9-4.02c-1.05-.7-1-1.9-1.16-2.97zm.63 3.33c2.83 1.75 5.6 3.33 8.65 4.28.5.15.34.52.34.83l.01 6.53c.02 1.68.52 3.32.5 5.02-.01.33-.02.68-.1 1-.27 1.13-1 1.5-2.05.98-.54-.27-1.05-.62-1.53-1-2.1-1.66-4.22-3.25-6.63-4.42-.3-.15-.38-.33-.4-.63-.2-4.22.34-8.36 1.2-12.58zm-7.48 40.86a149.4 149.4 0 0 0 2.11-11.36c.68-4.48 2.2-8.7 3.88-12.88.54-1.34.52-1.35 1.75-.54 1.5 1 1.53 1 1.14 2.7-.9 3.86-1.64 7.76-2.47 11.64-1 4.62-3.36 8.7-5.26 12.98l-2.3 5.27a43.1 43.1 0 0 1 1.14-7.82zm7.46-12.57c2.22 7.38 5.64 14.1 7.42 21.38l1 4.28c.13.57.06 1.1-.14 1.68-2.2 6.57-4.14 13.22-5.3 20.07-.25 1.5-.43 3.03-.58 4.55-.1.95-.74 1.45-1.48 1.68-.63.2-1.1-.4-1.45-.92-1.17-1.76-1.7-3.78-2.12-5.8a85.9 85.9 0 0 1-1.68-13.92l-.82-18.63c-.02-.47.18-.83.35-1.2 1.42-3.04 2.92-6.05 3.86-9.3.35-1.2.6-2.4.93-3.85zm-8.08 41.82c-.75-5.78-1.18-11.58-1-17.4.05-1.53.7-2.9 1.25-4.28.62-1.58 1.3-3.14 1.95-4.7.1.02.18.04.26.06l.28 7.13c.26 5.32.32 10.66.9 15.96.48 4.4 1.05 8.8 2.62 13 .66 1.76.32 3.7.34 5.57a8.3 8.3 0 0 1-.4 2.62c-.2.6-.48 1.2-1.17 1.28-.67.08-1.04-.47-1.34-.95a11.7 11.7 0 0 1-1.55-4.47c-.74-4.6-1.54-9.17-2.14-13.8zm1.45 37.6c.37-1.04.9-2.02.87-3.42 1.27 1.27 1.8 2.64 2.03 4.13.42 2.88.5 5.8.6 8.7l.94 29.03a185.8 185.8 0 0 0 .69 10.91c.03.33.24.78-.4.8-.53.03-.5-.4-.52-.7-.45-6.83-2.22-13.43-3.57-20.1-.8-4-1.25-8.04-1.46-12.12-.22-4.2-.26-8.4-.42-12.6-.06-1.7.7-3.14 1.24-4.66zm3.2 50.34c-.58.01-1.13.12-1.24-.75a72.6 72.6 0 0 1-.56-7.23c-.05-2.23-.01-4.46-.01-6.72a78.4 78.4 0 0 1 1.45 7.1 66.3 66.3 0 0 1 .82 6.74c.02.38.22.83-.46.85zm-5.6-15.36a238 238 0 0 1-1.26-14.37 46.9 46.9 0 0 1 1.66-14.81c.03-.1.07-.22.1-.33h.12l.27 9.83a96.8 96.8 0 0 0 2.04 16.64c.06.27.12.54.1.8a190.8 190.8 0 0 0 .21 10.21c.1 2.3.22 4.6.6 6.86.1.56-.07.6-.52.62-1.6.05-1.64.01-1.77-1.57-.37-4.64-1.1-9.24-1.6-13.87zm11.57 19.04a22.4 22.4 0 0 0 1.49 5.49c.6 1.43.33 2.9.04 4.35-.48 2.37-1.02 4.73-1.05 7.17a20.6 20.6 0 0 0 .5 4.83 4.7 4.7 0 0 1-.88 4 7.8 7.8 0 0 1-5.6 3.16 3.2 3.2 0 0 1-2.05-.4c-2.05-1.32-4.3-2.23-6.55-3.1-2.14-.84-2.2-2.63-1.57-4.5a9.8 9.8 0 0 1 1.8-3 11.1 11.1 0 0 0 2.61-7.83 11.4 11.4 0 0 1 .54-3.62c.42-1.42.66-2.88.7-4.35.03-.93.3-1.3 1.22-1.1.15.03.3 0 .53 0 2.5-.1 4.96-.73 7.35-1.63.6-.22.83-.2.94.52zm-.27-12.25a14.8 14.8 0 0 1-.43 2.06 75.8 75.8 0 0 1-.71-10.69l1.42 6.5c.2.78-.2 1.43-.28 2.14zm1.7-5.5c-.35.8-.62 1.64-1.03 2.72-.96-4.34-1.87-8.4-1.8-12.65l.9 3.03a49.4 49.4 0 0 0 1.92 5.24 1.9 1.9 0 0 1 .01 1.66zm5.2-21.14c.52 4.34.1 8.54-1.63 12.58L60.4 250c-.76-1.58-1.24-3.02-1.73-4.46a46.2 46.2 0 0 1-1.8-7.01c-.23-1.38.03-2.75.13-4.12.24-3.4.92-6.7 2.58-9.75.9-1.67 2.23-3.03 3.42-4.74.35 3.7 1.55 7.04 1.96 10.52zm2.35-33.57c-.3 4.22-.3 8.45-1.08 12.63a21.2 21.2 0 0 1-1.71 5.32c-.6 1.22-1.08 2.46-1.44 3.76-.27 1-1 1.76-1.65 2.5-3.4 3.88-4.66 8.53-4.98 13.53-.4 6.25-.35 12.5.04 18.74.22 3.5.64 6.96 1.14 10.4.17 1.2.23 2.44.4 3.65.07.46-.13.62-.47.74-2.7.94-5.4 1.77-8.3 1.74-.7-.01-.94-.2-.86-.9a15.5 15.5 0 0 0 .06-2.11c-.02-.53.16-.7.7-.66 1.6.07 3.18-.06 4.77-.22.77-.08 1.06-.24.94-1.17-.43-3.28-.55-6.6-.7-9.9l-.56-17.2-.7-18.56c-.07-1.62-.16-3.25-.7-4.8a6 6 0 0 0-1.33-2.39c-.68-.66-.8-1.4-.85-2.3a100.3 100.3 0 0 1-.02-13.69c.02-.3-.06-.62.24-.87.3.47.55.96.88 1.4 1.05 1.42 2.48 1.23 3.17-.4.5-1.18.54-2.44.56-3.7.02-1.07 0-2.14 0-3.4.97 1.16 2 1.55 3.27.23-.02 2-.03 3.76.37 5.5.25 1.08.62 2.12 1.32 3a3.7 3.7 0 0 0 5.65.58c.65-.53 1.18-1.16 1.7-1.8.24.03.18.2.17.35zm.1-2.2c-.1 1.5-2.62 3.9-4.1 4.12-1.4.2-2.83-.68-3.64-2.28a11.1 11.1 0 0 1-1.03-4.71c-.18-5.54.98-10.9 2.3-16.2.98-3.97 2.16-7.9 3.48-11.77l.22.03.84 4.85c.83 4.92 1.3 9.88 2.02 14.8.54 3.75.17 7.45-.1 11.16zm.98-7.35l-.53-5.1c-1.16-9.9-2.4-19.76-5.35-29.3-1.38-4.44-3.28-8.7-4.85-13.08a31.9 31.9 0 0 0-.63-1.72c-.9-2.2-1.16-4.43-.42-6.78.56-1.77.85-3.63 1.27-5.45.05-.2-.07-.6.33-.52.26.05.5.26.47.6-.01.15-.01.3-.03.46a20 20 0 0 0 1.79 11.44c2.4 5.06 4.62 10.2 6.04 15.65a105 105 0 0 1 2.72 15.82 147.6 147.6 0 0 1 .7 11.1 16.1 16.1 0 0 1-1.5 6.9zm1.32-17.94c-.07-.66.04-1.23.45-1.8.56-.78 1-1.65 1.62-2.7a34.6 34.6 0 0 1-1.64 8.78l-.42-4.28zm1.12 9.83c-.07.26-.15.5-.22.8-.87-3 .06-5.78.77-8.6 1.15-4.52.98-9.1.63-13.7-.37-4.8-1.5-9.48-2.3-14.44.56.7.75 1.34.98 1.95a3.6 3.6 0 0 0 2.77 2.4c.43.1.72.2.73.8.05 10.38-.7 20.68-3.34 30.77zm4.95-38.3c-1.06-.03-2.1-.63-3-1.78-1.04-1.36-1.6-2.94-2.18-4.52-1.96-5.33-3.06-10.86-3.84-16.47-.03-.2-.03-.43-.03-.64-.05-3.27-.05-3.27 3.77-3.25a106.6 106.6 0 0 0 5.3.23v-.54c-1.9.03-3.83 0-5.74-.2-.64 0-1.3-.02-1.93 0-1.26.05-1.82.54-1.88 1.78-.05.95-.08 1.9.04 2.85.7 5.4 1.8 10.74 3.63 15.9.7 1.96 1.36 3.94 2.74 5.57.9 1.05 2.02 1.6 3.14 1.62v-.53zm-7.74-37.5l2.1-.9c1.14-.4 2.3-.15 3.45-.04 1.35.13 1.64-.13 1.8-1.45a19.4 19.4 0 0 0 .2-3.45 17.9 17.9 0 0 0-.19-3.5c-.3-1.9-1.27-2.57-3.14-2.1-1.84.45-3.3 1.52-4.68 2.78-.62.57-1 1.24-1.1 2.05a26.6 26.6 0 0 0-.28 5.5c.08 1.27.65 1.6 1.84 1.14zm-.94-6.9c.08-.4.22-.77.5-1.05 1.4-1.35 2.9-2.5 4.83-3 1.34-.34 2.03.05 2.34 1.4a13.5 13.5 0 0 1 .28 3.71c.1 1.07-.12 2.2-.18 3.32-.05.88-.48 1.3-1.36 1.08-1.98-.47-3.8-.06-5.56.9-.87.48-1.2.27-1.23-.68-.07-1.9-.03-3.8.37-5.66zm1.2 16.48a16.5 16.5 0 0 0 3.56.35H73c1.8-.03 2.2-.44 2.46-2.24a20 20 0 0 0-.04-5.3c-.27-2.16-1.07-2.95-3.1-2.97a9 9 0 0 0-5.08 1.62c-.46.3-.7.76-.8 1.3a14.2 14.2 0 0 0 .05 5.47c.2 1 .83 1.58 1.86 1.8zm-1.4-7.07c.1-.47.32-.86.73-1.1 1.54-.93 3.17-1.57 5.03-1.42 1.22.1 1.75.54 2 1.73a17.8 17.8 0 0 1 .17 6.3c-.12.9-.6 1.36-1.5 1.4H72.1a16.2 16.2 0 0 1-3.67-.34 1.7 1.7 0 0 1-1.46-1.44c-.35-1.7-.35-3.4-.04-5.1z" fill="#626363"/><path d="M76.72 149.1h-.05L77.14.44c5.68.2 10.4 4 11.77 9.47.7 2.76.68 5.56.42 8.36-.05.54-.08.87.64 1 1.26.25 1.76 1.03 1.68 2.35-.08 1.38-.42 2.7-.97 3.96-.4.94-1.03 1.67-2.02 2-.5.16-.7.45-.8.96-.55 2.42-1.6 4.6-3.3 6.46-.22.24-.5.45-.5.8-.2 3.27-.33 6.5 1.75 9.38 1.8 2.47 4.14 4.22 6.7 5.76 1.42.85 2.98 1.3 4.64 1.34a41.9 41.9 0 0 1 5.46.4c3.12.5 5.87 1.56 7.37 4.63a48.2 48.2 0 0 1 4.36 14.04c.47 3.15.55 6.36 1.48 9.44 2.26 7.5 3.67 15.14 3.57 23a5.3 5.3 0 0 0 1.58 3.93c2.52 2.7 4.18 5.87 5.08 9.46.88 3.5 1.6 7.05 2.2 10.62.9 5.42 1.7 10.86 3.5 16.1 1.03 3 2.58 5.28 5.52 6.55a5.4 5.4 0 0 1 2.73 2.41 5.8 5.8 0 0 0 1.84 1.86c.26.2.6.37.72.64.6 1.42 1.7 2.34 2.9 3.2.87.62.67 1.34-.36 1.7-1.8.6-3.55.08-4.7-1.44-.5-.65-.96-1.32-1.75-1.67-.87-.38-1.42-.12-1.56.8a6.6 6.6 0 0 0-.05 1.56c.28 3.37 1.2 6.6 2.43 9.73.44 1.12.82 2.27.8 3.5-.01.54-.1 1.07-.68 1.3-.6.23-1.1-.07-1.45-.53-.55-.7-.92-1.5-1.23-2.32l-1.96-5.2c-.16-.4-.25-.93-.85-1.2-.03.54-.1 1-.07 1.44l.43 5.85c.08 1.14.18 2.28.03 3.42-.08.6-.32 1.16-1.05 1.23-.77.08-1.25-.3-1.48-1a4.9 4.9 0 0 1-.28-1.24c-.14-2.05-.52-4.07-.84-6.1-.15-.93-.18-1.94-.82-2.74-.3.1-.36.33-.44.54-.6 1.44-.75 2.96-.95 4.48-.15 1.13-.2 2.28-.7 3.33-.22.47-.58.8-1.14.76-.55-.05-.75-.47-.85-.94-.06-.28-.12-.57-.13-.86-.07-1.54.13-3.06.28-4.58.13-1.28.2-2.55-.1-4-.72.9-.92 1.78-1.26 2.6-.53 1.3-.74 2.7-1.4 3.96-.24.45-.6.82-1.17.7-.6-.12-.84-.56-.87-1.15-.03-.62-.02-1.23.1-1.85.33-1.57.8-3.1 1.3-4.6a9.7 9.7 0 0 0 .54-3.64c-.12-2.06.05-4.1.56-6.1.3-1.17.46-2.33.3-3.57-.28-2.25-1.22-4.25-2.13-6.25-2.55-5.56-5.56-10.9-8.18-16.43-2.5-5.32-3.95-10.8-3.28-16.73.14-1.26.05-2.54-.4-3.76l-1.27-3.4c-2.15-5.42-4.37-10.8-6.06-16.4-.5-1.64-1.16-3.24-1.77-4.94-.4.48-.45.94-.57 1.37-1.7 6.06-2.64 12.3-4.17 18.38-.92 3.68-.65 7.15.73 10.7 2.3 5.88 4.3 11.88 6.26 17.88 3.3 10.06 4.35 20.34 3 30.86-.9 7-2.22 13.9-3.8 20.76-1.35 5.9-2.35 11.84-2 17.9.22 3.82.26 7.63-.1 11.43-.2 2.23.08 4.32.77 6.43 1.16 3.6 1.65 7.3 1.6 11.07-.08 5.5-.8 10.92-1.63 16.33-1.13 7.28-2.74 14.46-4.13 21.7-.45 2.35-.84 4.7.2 7 .66 1.45.82 2.98.46 4.48a8.4 8.4 0 0 0 .7 5.69c.37.8.67 1.63 1 2.44a40.9 40.9 0 0 1 1.99 5.92c.55 2.45-.25 3.63-2.74 4.05a10.7 10.7 0 0 1-.78.09c-1.6.14-3.12.42-4.6 1.13-2.26 1.08-4.28.38-5.7-1.7a6.9 6.9 0 0 1-1.07-2.49c-.48-2.2-.01-4.42.1-6.62.17-3.14.68-6.26-.43-9.38-.58-1.63-.6-3.45.1-5.08.92-2.15 1.16-4.36 1.27-6.66.4-8.82.05-17.6-1.7-26.27-.65-3.22-1.24-6.47-1.47-9.75-.32-4.64.35-9.24.85-13.83.26-2.4.08-4.67-.84-6.9-.56-1.36-1.13-2.7-1.6-4.1-1.65-4.9-1.58-9.93-1.1-15 .28-3 .38-6-.01-8.98-.46-3.53-1.58-6.9-2.45-10.34a61.8 61.8 0 0 1-1.74-21.7c.06-.57-.05-.78-.67-.6z" fill="#c6c6c6"/><path d="M77.38 149.72a61.8 61.8 0 0 0 1.74 21.7c.88 3.43 2 6.8 2.45 10.34.4 3 .28 5.98.01 8.97-.47 5.06-.53 10.1 1.1 15 .47 1.4 1.04 2.74 1.6 4.1.92 2.22 1.1 4.5.84 6.9-.5 4.6-1.17 9.2-.85 13.83.23 3.28.82 6.53 1.47 9.75 1.75 8.7 2.1 17.45 1.7 26.27-.1 2.3-.34 4.52-1.27 6.66-.7 1.64-.68 3.45-.1 5.08 1.1 3.12.6 6.24.43 9.38-.12 2.2-.58 4.4-.1 6.62a6.9 6.9 0 0 0 1.07 2.49c1.42 2.07 3.44 2.77 5.7 1.7 1.5-.7 3.02-1 4.6-1.13.26-.02.52-.05.78-.1 2.5-.4 3.3-1.6 2.74-4.05-.46-2.04-1.23-3.98-2-5.92-.32-.82-.62-1.65-1-2.44a8.4 8.4 0 0 1-.7-5.69 6.8 6.8 0 0 0-.46-4.48c-1.04-2.3-.66-4.67-.2-7l4.13-21.7c.84-5.4 1.55-10.84 1.63-16.33a33.7 33.7 0 0 0-1.6-11.07 15.6 15.6 0 0 1-.77-6.43c.36-3.8.32-7.6.1-11.43-.35-6.07.65-12 2-17.9 1.57-6.86 2.9-13.77 3.8-20.76 1.33-10.52.28-20.8-3-30.86-1.96-6-3.96-12-6.26-17.88a17 17 0 0 1-.73-10.69c1.53-6.1 2.47-12.33 4.17-18.38.12-.43.18-.9.57-1.37.6 1.7 1.27 3.3 1.77 4.94 1.7 5.6 3.9 11 6.06 16.4l1.27 3.4a7.9 7.9 0 0 1 .4 3.76c-.67 5.93.77 11.4 3.28 16.73 2.6 5.54 5.63 10.87 8.18 16.43.92 2 1.85 4 2.13 6.25a9.5 9.5 0 0 1-.3 3.57 20.6 20.6 0 0 0-.56 6.1c.07 1.27-.15 2.45-.54 3.64a47 47 0 0 0-1.3 4.6 7 7 0 0 0-.11 1.85c.03.58.28 1.02.87 1.14.57.12.93-.24 1.17-.7.65-1.25.86-2.66 1.4-3.96.34-.83.55-1.72 1.26-2.6.3 1.45.24 2.72.1 4-.16 1.52-.36 3.04-.28 4.58.01.3.07.58.13.86.1.47.3.9.85.94.56.04.93-.3 1.14-.76.5-1.05.54-2.2.7-3.33.2-1.52.37-3.04.95-4.48.08-.2.15-.43.44-.54.64.8.67 1.8.82 2.74.32 2.02.7 4.04.84 6.1a4.9 4.9 0 0 0 .28 1.23c.23.7.7 1.1 1.48 1 .73-.08.97-.62 1.05-1.23.15-1.14.04-2.28-.03-3.42l-.43-5.85c-.03-.45.04-.9.07-1.44.6.26.7.77.85 1.2l1.96 5.2a8.5 8.5 0 0 0 1.23 2.32c.36.46.84.76 1.45.53.6-.22.67-.74.68-1.3.01-1.23-.36-2.38-.8-3.5a34.4 34.4 0 0 1-2.43-9.73 6.6 6.6 0 0 1 .05-1.56c.14-.92.7-1.18 1.56-.8.78.34 1.25 1.02 1.75 1.67 1.16 1.52 2.9 2.05 4.7 1.44 1.03-.35 1.22-1.08.36-1.7-1.22-.87-2.3-1.8-2.9-3.2-.1-.27-.45-.45-.72-.64-.73-.5-1.42-1.1-1.84-1.86a5.4 5.4 0 0 0-2.73-2.41c-2.94-1.26-4.5-3.56-5.52-6.55-1.8-5.25-2.6-10.7-3.5-16.1-.6-3.57-1.32-7.1-2.2-10.62a21.2 21.2 0 0 0-5.08-9.46c-1.05-1.13-1.6-2.33-1.58-3.93.1-7.86-1.3-15.5-3.57-23-.93-3.08-1-6.3-1.48-9.45-.73-4.9-2.2-9.58-4.36-14.03-1.5-3.08-4.25-4.14-7.37-4.63-1.8-.3-3.63-.35-5.46-.4-1.67-.05-3.22-.5-4.64-1.34-2.55-1.54-4.9-3.3-6.7-5.76-2.1-2.88-1.95-6.1-1.75-9.38.02-.36.3-.57.5-.8a14 14 0 0 0 3.3-6.46c.12-.5.3-.8.8-.96 1-.33 1.6-1.07 2.02-2 .55-1.27.9-2.6.97-3.96.08-1.32-.42-2.1-1.68-2.35-.7-.14-.7-.47-.64-1 .26-2.8.27-5.6-.42-8.36A12.3 12.3 0 0 0 77.14.45a19 19 0 0 0-.48-.01V1c5.88.18 10.42 3.7 11.75 9.2.67 2.8.63 5.62.32 8.46-.08.68-.12 1.17.85 1.16 1.04-.01 1.6.7 1.52 1.74a10.9 10.9 0 0 1-.98 3.86c-.4.84-.97 1.5-1.9 1.7-.6.14-.76.5-.87 1a15.2 15.2 0 0 1-.99 3.06c-1.54 3.47-4.36 5.77-7.45 7.67-.7.43-1.48.7-2.26.8v.48a6.9 6.9 0 0 0 3.86-1.48c-.6 3.64-1.9 6.74-3.86 9.57v.9c2.45-3.03 3.85-6.52 4.4-10.38.05-.37.15-.7.46-.93.6-.45 1.16-.93 1.9-1.53 0 1.3-.1 2.37.02 3.43.2 1.8-.4 3.26-1.56 4.55a15.4 15.4 0 0 0-4.15 10.18c-.02.63-.38.63-.82.67-.1.01-.17 0-.23-.01v.64a8.3 8.3 0 0 0 .99-.12 42.9 42.9 0 0 0 5.27-1.43c3.3-1.05 6.63-1.92 10.13-1.93.34 0 .75-.14 1.14.4-4.8.48-8.27 3.03-11.2 6.5-.35.42-.75.86-1.28 1.03-2.16.7-3.04 2.44-3.56 4.43-.65 2.5-.5 5.04-.43 7.58.13 5.2 2.5 9 7.1 11.4 1.03.53 1.84 1.07 2.32 2.26.34.84.1 1.72.47 2.43.6 1.2-.5 1.34-.97 1.88a3.1 3.1 0 0 0-.67 1.18c-.4 1.42-.44 2.83.2 4.2.12.25.3.44.15.8a4.1 4.1 0 0 0 1.11 5.42c-1.98 1.86-2.16 4.05-1.05 6.4.14.3.1.47-.06.7-.67 1.02-.7 2.18-.5 3.3a9.8 9.8 0 0 1 .07 2.42c-.26 3.5-.43 7.03-.1 10.55a14 14 0 0 0 .93 4.27c.74 1.72 2.08 2.27 3.82 1.57.8-.32 1.48-.8 2.15-1.34 1.56-1.24 2.97-2.65 4.74-3.6.84-.45 1.7-.8 2.66-.94.42-.06.6.14.7.5.1.4-.2.43-.45.48-1.23.3-2.28.97-3.25 1.73a67.2 67.2 0 0 0-12.33 12.76c-1.9 2.56-3.7 5.23-6.3 7.18a4.1 4.1 0 0 1-1.8.8v.55c.02 0 .03-.01.05-.01.6-.17.73.04.67.62zM80.82 53c-.24 1.16-.9 1.6-1.96 1.76-.5.08-.6-.06-.54-.46.12-.93.2-1.87.4-2.8a12.2 12.2 0 0 1 2.68-5.57 25.2 25.2 0 0 1-.58 7.07zm3.67-.34c.1.4-.14.45-.38.52l-2.98.9c.76-2.6 1.1-5.12.86-7.65-.12-1.32.57-2.1 1.43-3.14a34.6 34.6 0 0 0 1.07 9.35zm7.98-1c-2.55.1-4.73.55-6.88 1.1-.57.15-.54-.25-.6-.5-.3-1.46-.64-2.92-.78-4.4-.13-1.45-.4-2.92-.12-4.66 1.7 3.98 4.82 6.24 8.36 8.47zM88.42 108c2.37-.8 4.82-1.37 6.83-3.37-.07 1.53-.4 2.78-.14 4.03.05.25-.1.43-.3.58-1.6 1.35-3.18 2.7-5.06 3.6a4.7 4.7 0 0 1-1.94.57c-.65.02-1.07-.26-1.27-.84-.5-1.42-.44-3.8 1.87-4.58zm-1.56-11.35c.8-1.03 1.96-1.5 3.15-1.83.9-.25 1.8-.53 2.78-.3 1 .23 1.36.92 1.44 1.84.07.87.04 1.6-1.05 1.96-1.66.56-3.2 1.42-4.62 2.48-.64.48-1.08.28-1.5-.25-.53-.7-.67-1.53-.74-2.38-.06-.6.17-1.08.53-1.53zm10.1-5.05c-.1 1.2-.42 2.33-1.22 3.3-.48.57-.96 1.03-1.4-.05-.1-.25-.4-.42-.62-.6-.2-.16-.23-.3-.18-.56.22-1.03.37-2.07 1.77-2.16.26-.02.54-.23.77-.4.66-.5.98-.42.9.5zm-.37-1.63a5.6 5.6 0 0 1-6 1.05c-1.52-.7-2.44-2.03-2.36-3.42 3.58 2.08 5.9 1.9 9.23-.8.46 1.15.16 2.2-.87 3.18zm-8.04.28a5.3 5.3 0 0 0 4.16 1.79c.38 0 .53.18.5.54-.07.68-.18 1.24-1.1 1.28a9.5 9.5 0 0 0-4.1 1.13c-1.2.65-1.5.5-1.65-.92-.03-.3-.03-.58-.04-.8.02-1.12.17-2.1.98-2.85.34-.3.77-.72 1.25-.18zm-1.14-5.3c6.24 1.22 7.7 1.05 10.74-3.33.86 2.36-.87 5.33-3.7 6.36-3.16 1.15-6.03-.1-7.05-3.03zm-4.17-24.3c4.9.5 9.37 2.2 13.4 5.04a6.4 6.4 0 0 1 2.74 4.34c.23 1.43.27 2.85.12 4.28-.3 2.95-1.1 5.76-2.8 8.24a5.4 5.4 0 0 1-4.82 2.48 13.4 13.4 0 0 1-5.74-1.4c-3.07-1.5-5.65-3.48-6.92-6.8-.85-2.2-.93-4.5-.88-6.83 0-.85-.05-1.7.01-2.54.13-1.63.4-3.23 1.22-4.68.8-1.42 2.03-2.28 3.68-2.1zM114.4 77.9c-.4.23-.96-.25-1.4-.48-1.85-.95-3.34-2.37-4.9-3.7-2.37-2.02-4.8-3.94-7.95-4.6-.28-.06-.42-.23-.52-.5-.57-1.68-1.8-2.84-3.2-3.82a28.2 28.2 0 0 0-7.73-3.64 27.8 27.8 0 0 0-5.51-1.14c2.2-2.6 4.44-4.9 7.68-5.97 3.6-1.2 7.26-1.22 11-.86 4.55.44 7.3 2.77 8.86 7.04a57.8 57.8 0 0 1 3.64 16.32c.03.46.47 1.1.04 1.35zm16.4 70.08c.08.27.4.7-.12.82-.5.13-.4-.4-.47-.66a174 174 0 0 0-5.43-17.43c-1.8-4.93-3.8-9.77-5.44-14.75-.98-3-.8-5.94.06-9.1 2.32 2.5 4.32 5 5.35 8.14 1.36 4.12 2.3 8.35 2.72 12.67.65 6.85 1.3 13.7 3.33 20.3zm-12.36-32.33c.23.2.33.47.42.75.8 2.64 1.85 5.2 2.8 7.8 1 2.77 2.38 5.44 2.9 8.36.97 5.55 2 11.1 4.08 16.36.03.1.05.2.07.28.07.23.01.38-.24.43-.2.04-.4.04-.46-.2s-.16-.5-.23-.75a115.7 115.7 0 0 0-8.67-21.93 58.3 58.3 0 0 1-4.9-11.8c-.27-.98-.47-1.9.3-2.82l3.93 3.53zm-2.96-3.48c-.75-.6-.9-1.18-.34-2.03.57.48 1.03 1.07 1.63 1.32 1.47.6 1.33 1.85 1.5 3.18-1.08-.8-1.87-1.7-2.8-2.46zm8.82 27.8a123.7 123.7 0 0 1 3 9.34c.04.15.26.37-.03.5-.3.12-.4-.12-.47-.34-.2-.65-.44-1.3-.62-1.95l-2.12-7.47.24-.07zm2.54 1.2c-.4-1.63-.8-3.25-.84-4.96.08.17.2.33.24.5 1.26 3.9 2.47 7.8 3.38 11.77.05.2.35.56.01.68-.4.14-.4-.32-.5-.57-.88-2.44-1.7-4.9-2.3-7.42zm4.97 6.92c-.45.24-.4-.25-.47-.48a32 32 0 0 1-.47-1.58 56.8 56.8 0 0 1-1.6-8.21c.93 3.13 1.83 6.28 3.16 9.3.3.7-.3.8-.62.98zm-7.56 7.05c.24-1.2.65-2.4.5-3.66-.07-.57.06-.76.7-.8 2.56-.16 5.03-.68 7.12-2.33.25-.2.4-.24.65.03 1.08 1.23 2.5 1.97 3.92 2.7.98.52 1.78 1.15 2.34 2.13.5.86 1.25 1.5 2.05 2.07.23.17.52.35.63.6a6.7 6.7 0 0 0 2.78 3.07c.2.12.45.24.4.5-.05.3-.37.3-.6.4a3.3 3.3 0 0 1-3.8-1.28c-.58-.75-1.14-1.5-2.06-1.9-1.25-.5-2.15-.02-2.33 1.3a10.6 10.6 0 0 0 .06 2.92 38.8 38.8 0 0 0 2.32 8.56 9.3 9.3 0 0 1 .8 3.4c0 .26-.01.54-.3.67-.34.15-.56-.08-.75-.3a7.4 7.4 0 0 1-1.2-2.23l-1.8-4.85c-.23-.6-.45-1.23-.9-1.72-.5-.54-1.06-.4-1.2.33-.1.6-.12 1.24-.08 1.85l.48 7.03a7.1 7.1 0 0 1-.06 1.95c-.06.34-.23.62-.63.64-.34.02-.56-.2-.67-.48a4.2 4.2 0 0 1-.25-.94l-.8-5.6c-.16-1.1-.3-2.2-.7-3.24-.15-.4-.3-.84-.8-.88-.57-.04-.78.42-.97.83a8.4 8.4 0 0 0-.44 1.29 25.2 25.2 0 0 0-.6 3.56c-.1.94-.2 1.88-.52 2.78-.1.3-.24.7-.6.68-.4-.02-.4-.45-.45-.76-.13-.7-.08-1.43-.05-2.15.08-1.98.6-3.94.34-5.94-.07-.58.1-1.43-.7-1.54-.75-.1-.92.7-1.17 1.25-.76 1.63-1.2 3.37-1.8 5.06-.14.4-.3 1.06-.82.93-.54-.14-.44-.8-.4-1.27.01-.13.04-.26.06-.4.2-1.53.7-2.98 1.15-4.44.42-1.37.9-2.72.76-4.2a19.6 19.6 0 0 1 .42-5.64zm-3.9-15.6c1.95 3.28 3.6 6.7 4.47 10.42-1.05-3.66-2.95-6.96-4.47-10.42zm-8.95-23.27c.78-.45 1.32-1.14 1.97-1.96.1.27.17.4.2.56a47.7 47.7 0 0 0 3.29 8.73l2.27 4.53a42.7 42.7 0 0 1 3.77 9.8 229.3 229.3 0 0 0 3.22 11.46c.06.18.32.43-.02.58-.33.14-.47-.1-.56-.37-.04-.12-.07-.25-.1-.37a54.7 54.7 0 0 0-6.34-13.05c-1.52-2.35-3.07-4.68-4.23-7.24-1.7-3.77-3.43-7.53-3.75-11.75-.03-.35-.14-.7.28-.93zm-.06-3.53c2.5-2.77 2.9-6.02 2.3-9.5-.36-2.05-1.53-3.8-2.48-5.6-3.02-5.77-6.1-11.5-8.28-17.67-1.04-2.94-2.27-5.83-2.8-8.93-.24-1.44-.2-1.44 1.2-.98 2.67.9 4.72 2.7 6.8 4.48 1.64 1.4 3.2 2.93 5.26 3.67 1.12.4 1.5 1.03 1.77 2.08 1.45 5.6 3.15 11.17 3.42 17 .18 3.88.87 7.77-.23 11.63a5.7 5.7 0 0 0-.2 1.74c.02.95-.35.75-.9.38-1.02-.7-1.9-1.53-2.3-3.07-.7 3.06-1.32 5.8-3.88 7.86.04-1.2-.43-2.28.3-3.1zm-.3-8.57c.3-1.3.3-2.67.6-4.17 1.2 2.1 1.87 4.12 1.55 6.45-.67-.34-1.04-.85-1.47-1.28-.3-.3-.78-.56-.68-1zm.05 7.73v-3.2c1.6 1.33 1.6 1.8 0 3.2zm-.44-6.6c.37-.33.5.27.75.45.23.18.42.4.64.6 1.3 1.14 1.3 1.14.6 2.95-.9-.88-1.6-1.76-2.24-2.7-.37-.54-.07-1.02.24-1.3zm-11.02-27c-.12-.27-.18-.53-.1-.84.23-1.06.42-2.13.65-3.3.08.2.13.32.16.43 2.36 7.4 5.46 14.46 9.2 21.25.52.94 1.3 1.9 1.38 2.88a14.2 14.2 0 0 1-.95 6.6l-.44-1.02c-3.78-8.48-6.02-17.54-9.88-26zm-2.4 15.05c.3-.84.42-1.72.2-2.6a1.3 1.3 0 0 1 .23-1.16c.6-.87.84-1.84.44-2.86-.17-.44-.12-.75.1-1.16.68-1.26 1.13-2.64.6-4.02-.4-1.03-.02-1.74.4-2.67.3.65.5 1.2.78 1.7.5.84.5 1.64.2 2.58a77.1 77.1 0 0 0-1.5 5.75c-.43 1.8-.78 3.6-1.2 5.48-.46-.37-.38-.7-.25-1.06zm-1.38 4.04c-.15-.02-.3.08-.47.13-.48.15-.56-.01-.6-.5-.06-.97.9-1.02 1.28-1.56.17-.24.3-.7.67-.58.34.1.16.58.24.88.03.12.04.25.05.38.07.86-.2 1.4-1.2 1.25zM94 104.94c-1.7 1.32-3.7 1.84-5.7 2.42-.48.14-.9.85-1.45.36-.4-.37-.36-1.02-.5-1.55-.06-.22-.01-.46-.01-.64-.08-.64.03-1.2.3-1.74a6.7 6.7 0 0 1 1.98-2.25c2.16-1.68 4.62-2.76 7.22-3.55.7-.2.95-.08.73.72-.3 1.12-.63 2.27-.74 3.42-.12 1.32-.9 2.07-1.84 2.8zm5.6 19.67c-.96.13-1.86.55-2.7 1.05-1.53.9-2.82 2.1-4.18 3.2-.78.64-1.56 1.28-2.53 1.63a2 2 0 0 1-2.78-1.06 7.4 7.4 0 0 1-.68-2.12c-.8-4.46-.5-8.93-.18-13.4 3.88.5 6.03-2.34 8.74-4.12l1.16 3.5 3.7 10.4c.2.58.23.83-.52.93zm-13.23 16.52c.8 3.27 1.98 6.36 4.55 8.68.66.6.7 1.03.42 1.8a171.3 171.3 0 0 1-3.58 8.96l-2.8 6.4c-.66-.57-1.07-1.2-1.44-1.84-1.5-2.64-2.1-5.54-2.25-8.52-.16-3.24.52-6.42 1.1-9.6.2-1.12.2-2.33.82-3.3.82-1.32 1.85-2.5 2.9-3.9l.3 1.3zm-1.95 26.2c.15.16.24.34.16.53l-1.83 4.36c-1.3-3.9-1.67-7.72-1.72-11.67.13.12.2.15.2.2.58 2.42 1.4 4.74 3.17 6.58zm3.53-28.75c.73 2.28 1.66 4.55 3.47 6.13 1.5 1.3 1.55 2.48.85 4.1-.48 1.12-.4 1.18-1.28.28-2.3-2.37-3.4-5.34-4.13-8.48-.26-1.1-.17-1.97.85-2.73l.24.72zm3.05-3.34c1 1.26 1.6 2.73 2.32 4.14 1.08 2.1.37 4.06-.2 6.2a14.4 14.4 0 0 1-4.04-5.66c-1.1-2.66-1.1-2.67.9-4.68.02-.02.05-.04.07-.07.35-.5.6-.36.95.06zm3.18 4.4c-.87-1.8-1.64-3.62-3-5.1-.25-.28-.1-.46.1-.66l2.28-2.28c.3-.3.54-.4.64.16a23.9 23.9 0 0 1-.01 7.87zm11.57 12.53l-4.85-11.8c-1.4-3.53-2.9-7.03-4.07-10.65-.2-.6-.1-.97.4-1.3.9-.6 1.76-1.2 2.77-1.62.74-.3 1.14-.24 1.43.62 1.67 5 3.22 10.04 4.04 15.26.53 3.4.77 6.83.82 10.33-.4-.2-.43-.55-.55-.83zm-1.5-2.04c.14.33.08.64.06.96-.35 5.16-.87 10.3-1.66 15.43-1 6.36-2.28 12.66-4.34 18.77-.7 2.06-1.5 4.1-2.8 5.88-1.17 1.6-2.08 1.57-3.12-.1-.8-1.26-1.24-2.6-1.35-4.13-.34-4.8-1.07-9.52-2.63-14.08-.26-.76-.27-1.4-.01-2.15l8.67-25.63 2.1-7.4 5.1 12.44zm-4.28 45.23a5.8 5.8 0 0 1-1.81 4.16c-1.03 1.03-1.96.8-2.37-.62-.44-1.52-.4-3.1-.28-4.66.08-.9-.1-1.86.45-2.65 1.1-1.56 1.88-3.27 2.52-5.05 3.34-9.36 4.85-19.1 5.9-28.92l.5-5.5c.36 0 .3.27.4.42 1.16 1.86 1 3.9.8 5.95-.66 7.6-2.14 15.07-3.76 22.52-1.03 4.74-2.22 9.46-2.34 14.34zm1.04 26.6l-6.64 40.3c-.58 3.47-1.28 6.92-1.94 10.37-.04.23.05.6-.33.6-.34-.02-.6-.25-.6-.65 0-.16-.01-.33 0-.5l1.33-17.73c.5-6.14.74-12.3.9-18.44.13-4.82.13-9.64.63-14.45.25-2.4.96-4.6 2.82-6.24.9-.8 1.73-1.67 2.58-2.65-.5 2.5.46 4.76 1.12 7.06a5.2 5.2 0 0 1 .12 2.31zm-6.6 50.94c0 .5.05.9-.7.82-.7-.07-.8-.4-.7-.97l.88-4.4c.16-.8.16-1.66.5-2.28v6.82zm1.7-.03c.06.4.25.8-.47.87-.77.07-.67-.37-.66-.83l.17-8.4c.02-1.14-.1-2.3.06-3.42.48-3.2 1.1-6.4 1.63-9.6l4.75-28.55c.04.18.1.37.12.55a31.3 31.3 0 0 1 .14.87c.74 4.72.22 9.43-.28 14.13-.97 9.18-3 18.18-4.76 27.23-.46 2.36-1.1 4.7-.7 7.15zM87 275.3c2.4 1.52 5.06 2.17 7.9 2.18l.58-.05c1.88-.12 1.98-.1 1.6 1.7-.43 2.08-.12 3.97.7 5.9a51.6 51.6 0 0 1 2.9 7.98c.63 2.57-.03 3.5-2.64 3.8-.23.02-.46.02-.68.06-1.32.17-2.64.26-3.87.92-2.45 1.3-4.5.6-5.82-1.83-.56-1.03-.88-2.12-.82-3.28l.58-8.88c.12-1.45.03-2.85-.4-4.24a12.2 12.2 0 0 1-.68-3.83c.01-.5.1-.75.65-.4zm1.68-32.34c.13-.13.17-.35.25-.53l.8-1.84a62 62 0 0 1-1.83 8.97c-.52-2.3-1.17-4.62.77-6.6zm-.58 11.2c0-.8-.2-1.63 0-2.43l2.13-9.14c.32 5.75-1.06 19.66-2.13 21.44v-9.87zM85.8 218c1.58 2.38 3.02 4.75 3.7 7.5.57 2.32.53 4.72.74 7.08.22 2.56.05 5.07-.97 7.47-.6 1.4-1.08 2.85-2.12 4.23C85.3 235.5 83.8 226.9 85.8 218zm-3.84-20.66c1.05 1.63 1.9 3.08 3.28 4.06 1.55 1.1 3.16.8 4.23-.76 1.06-1.55 1.32-3.35 1.57-5.16.22-1.6.16-3.2.22-5.02.57.83.9 1.53 1.53 2.04.67.55 1.4.47 2.23.23l-.15 1.65c-.1 1.6-.12 3.2.35 4.74.56 1.84 2.06 2.17 3.4.8.4-.4.73-.9 1.2-1.46.18 3.57.34 6.96.25 10.35a6.7 6.7 0 0 1-2.02 4.72l-1.66 1.66c-1.14 1.13-1.88 2.48-2.23 4.05-.5 2.14-.65 4.32-.73 6.5l-.58 18.57c-.2 5.73-.68 11.45-1.15 17.16l-.8 10.63c-.08.97.28 1.54 1.22 1.8 1.14.33 2.27.63 3.46.38.7-.15 1.03.08 1.17.76.07.35.23.68.34 1.02.13.42.04.7-.47.73-3.4.23-6.62-.3-9.55-2.17-.68-.44-.5-.94-.26-1.42.87-1.77 1.14-3.65 1.25-5.58.02-.32.02-.66.12-.97 1.46-4.43 1.88-9.04 2.26-13.64.5-6.08.57-12.18.44-18.27-.06-2.9-.15-5.8-.65-8.67-.55-3.18-2.23-5.88-4-8.5-.33-.5-.5-.94-.45-1.53.22-2.4-.12-4.74-1.12-6.96-1.06-2.35-1.94-4.76-2.33-7.32-.22-1.38-.4-2.76-.37-4.42zm-.06-2.1c.07-2.97.42-5.9 1.4-8.7.33-.95.57-1.93.88-2.88l3.4-10.52h.25a7.2 7.2 0 0 0 .16.42c2.14 7.23 3.12 14.6 2.43 22.14-.15 1.65-.5 3.3-1.5 4.7-.82 1.15-1.92 1.43-3.05.7-1.97-1.28-3-3.28-3.96-5.33-.06-.13-.02-.32-.01-.48zm.3-19.27c1.2-4.2 3.1-8.16 4.83-12.16 2.65-6.1 5.3-12.2 6.88-18.68 1.04-4.27 1.7-8.6.92-12.97-.23-1.3 0-2.13 1.25-2.7l2.22 5.93a3.8 3.8 0 0 1 .14 2.35c-1.43 6.12-3.48 12.04-5.5 17.98-3.38 9.94-6.95 19.82-10 29.88-.1.38-.1.83-.52 1.2a26 26 0 0 0-.46-6.5c-.35-1.5-.2-2.9.22-4.3zm-4.24-26.12c.04-.44-.04-.98.37-1.26 1.37-.9 2.43-2.14 3.8-3.48-.82 4.07-1.38 7.9-1.56 11.75-.25 5.36-.06 10.68 1.73 15.82.08.25.18.46.08.75-.36 1.06-.7 2.13-1.03 3.2-.25-.04-.24-.22-.28-.38l-1.7-6.42a61.8 61.8 0 0 1-1.41-19.98zm-1-63.85c.01-.16.05-.32.1-.48.4-1.57 1.12-1.9 2.57-1.2a11 11 0 0 1 4.93 8.71c-.06.77-.36 1.45-1.23 1.52-2.02.18-3.74-.6-5.3-1.8-1.26-.96-1.16-2.38-1.23-3.82L77 86zM83 94.02a1 1 0 0 0 .99-1.28c-.5-2.8-1.35-5.44-3.72-7.3-.05-.04-.1-.1-.16-.12-.62-.32-1.22-1-1.94-.62-.63.34-.6 1.17-.65 1.85L77.4 89c.01 3 2.6 5.3 5.6 5.02zm-2.92 20.25c-1.68.3-2.98-.67-3.1-2.38-.1-1.43-.18-2.85-.06-4.3.25-2.8 1.15-3.52 3.95-3.1l.3.05c2.7.37 3.46 1.23 3.47 3.97.02 3.2-1.6 5.24-4.55 5.76zm-2.54-7.16c-.17 1.6-.12 3.18.01 4.77a1.9 1.9 0 0 0 2.38 1.8c4-.86 4.68-3.92 3.78-7.26-.17-.64-.86-.87-1.44-1.06a7.7 7.7 0 0 0-2.12-.35c-1.92 0-2.42.42-2.6 2.1zm3.63-2.96c-1.72-.25-3.47-.57-4.02-2.54s-.46-4 0-6c.14-.6.57-.94 1.18-1.02 2.03-.3 4.4 1 5.2 2.9a14.2 14.2 0 0 1 1.08 3.84c.28 2.24-.25 2.87-2.48 2.82-.33 0-.66.04-.98-.01zm-3.7-4.66c-.15 3.3 1.52 3.67 3.73 4.1.13.02.26.01.4.02 2.47.1 2.9-.4 2.35-2.85a18.1 18.1 0 0 0-.67-2.23c-.8-2.25-2.14-3.23-4.5-3.36-.52-.03-.86.17-1.07.66-.25.6-.2 1.22-.24 1.95-.16.5.04 1.1.01 1.72zm-.8 40.24a3.6 3.6 0 0 0 1.6-.95 11.1 11.1 0 0 0 2.42-3.64c2.2-5.1 3.5-10.4 3.55-15.97.02-2.52-.6-3.12-3.14-3.5-1.5-.2-3-.14-4.42-.16v-.6l3.62.07c.58.01 1.17.14 1.73.27 2.22.53 2.8 1.25 2.8 3.53.04 5-1.05 9.8-2.73 14.5-.7 1.96-1.57 3.86-2.97 5.45-.78.9-1.6 1.4-2.47 1.58v-.6z" fill="#626363"/></svg>